<?xml version="1.0" standalone="no"?>
<!DOCTYPE svg PUBLIC "-//W3C//DTD SVG 20010904//EN"
 "http://www.w3.org/TR/2001/REC-SVG-20010904/DTD/svg10.dtd">
<svg version="1.0" xmlns="http://www.w3.org/2000/svg"
 width="742.000000pt" height="659.000000pt" viewBox="0 0 742.000000 659.000000"
 preserveAspectRatio="xMidYMid meet">

<g transform="translate(0.000000,659.000000) scale(0.100000,-0.100000)"
fill="#84cc16" stroke="none">
<path d="M3562 6566 c-30 -7 -91 -32 -137 -55 -124 -61 -192 -133 -297 -311
-87 -148 -413 -708 -553 -950 -350 -606 -548 -947 -555 -955 -8 -11 -421 -716
-585 -1000 -54 -93 -180 -309 -280 -480 -166 -282 -228 -389 -393 -675 -30
-52 -63 -108 -73 -125 -10 -16 -26 -43 -34 -58 -9 -16 -134 -230 -278 -475
-325 -556 -323 -554 -347 -648 -59 -230 5 -469 170 -634 91 -90 165 -136 273
-167 l82 -24 3156 1 c2771 0 3163 2 3215 15 313 80 535 414 484 730 -20 127
-53 194 -290 595 -482 817 -695 1182 -922 1575 -83 143 -228 393 -323 555 -95
162 -192 329 -215 370 -24 41 -85 145 -135 230 -51 85 -144 245 -207 355 -64
110 -126 218 -139 240 -12 22 -81 139 -153 260 -71 121 -169 288 -216 370 -86
150 -504 872 -563 974 -72 122 -190 219 -329 269 -60 21 -94 26 -188 29 -72 1
-135 -3 -168 -11z m351 -194 c108 -53 159 -108 253 -273 91 -160 503 -865 604
-1034 43 -71 150 -254 237 -405 88 -151 223 -383 300 -515 77 -132 190 -325
250 -430 60 -104 149 -257 198 -340 48 -82 122 -211 165 -285 43 -74 189 -328
326 -565 257 -447 468 -809 782 -1345 102 -173 193 -340 203 -371 58 -185 13
-365 -125 -497 -69 -67 -134 -103 -223 -126 -55 -14 -375 -16 -3185 -16 -2844
0 -3129 1 -3179 16 -216 64 -359 251 -359 469 0 131 -11 108 360 750 455 785
645 1113 1734 2980 164 281 350 600 414 710 101 175 379 650 595 1019 78 134
125 190 198 237 82 53 150 69 265 66 96 -2 105 -4 187 -45z"/>
<path d="M4099 5227 c-54 -41 -112 -122 -140 -196 -45 -118 -33 -286 26 -388
26 -44 31 -89 19 -191 l-7 -52 -39 80 c-54 111 -130 190 -227 237 -68 33 -85
37 -156 38 -78 0 -80 -1 -84 -25 -12 -86 63 -224 161 -296 81 -59 155 -85 261
-92 l88 -5 -5 -51 c-3 -28 -8 -94 -11 -146 -5 -84 -33 -451 -36 -468 -1 -4 -7
31 -15 78 -32 189 -152 348 -296 391 -60 18 -131 29 -149 24 -24 -8 -30 -42
-19 -108 19 -116 92 -223 205 -296 64 -42 99 -56 230 -90 l41 -11 -23 -187
c-12 -104 -28 -230 -35 -282 l-13 -94 -34 87 c-54 138 -147 225 -240 226 l-34
0 6 -72 c12 -145 64 -227 203 -314 40 -26 74 -52 74 -58 0 -6 -18 -117 -39
-246 -24 -144 -36 -239 -30 -245 21 -21 39 25 60 150 11 72 23 140 25 153 4
19 11 22 53 22 84 0 173 34 234 90 59 53 100 132 95 178 -3 26 -5 27 -60 26
-107 -2 -222 -81 -278 -188 -23 -47 -50 -76 -37 -42 9 22 32 145 55 290 l17
109 60 13 c192 39 315 165 315 325 0 37 -5 73 -13 82 -11 16 -16 16 -60 3
-101 -30 -191 -108 -251 -216 -36 -64 -36 -64 -30 -25 3 22 13 110 23 195 l17
155 94 6 c59 4 117 15 152 29 170 64 315 224 334 367 l6 52 -38 7 c-50 9 -172
-10 -245 -40 -129 -52 -197 -130 -271 -311 l-28 -70 5 55 c2 30 8 129 11 218
8 189 -5 169 131 195 195 37 357 163 408 318 23 67 12 79 -69 79 -124 0 -243
-47 -317 -127 -48 -52 -78 -105 -115 -211 l-24 -67 0 60 c0 33 4 98 10 144 9
77 13 88 49 131 102 121 141 220 141 359 0 128 -40 261 -82 269 -8 2 -35 -12
-59 -31z"/>
<path d="M2286 4238 c-3 -13 -6 -46 -6 -74 0 -46 -12 -166 -26 -252 -4 -28 -8
-31 -29 -26 -28 7 -25 14 -50 -141 -24 -151 -23 -148 -46 -142 -27 7 -35 -13
-50 -128 -7 -55 -13 -101 -15 -103 -1 -2 -12 1 -23 8 -18 9 -22 7 -31 -15 -6
-15 -10 -77 -10 -139 0 -107 -1 -112 -21 -113 -31 -3 -32 -5 -30 -81 1 -60 17
-140 46 -229 7 -21 4 -23 -25 -23 l-33 0 7 -42 c9 -53 57 -174 91 -227 l25
-41 -25 -10 c-14 -5 -25 -13 -25 -17 0 -16 90 -166 125 -209 l36 -43 -26 -7
c-14 -3 -25 -9 -25 -13 0 -26 157 -183 249 -248 2 -2 -3 -11 -12 -21 -16 -18
-12 -22 85 -89 141 -96 225 -137 415 -199 178 -59 223 -78 269 -121 52 -46 74
-103 103 -260 l27 -148 33 -3 c31 -3 33 -1 28 20 -13 49 -36 211 -42 290 -9
112 5 150 123 328 122 183 192 317 236 450 45 136 58 206 40 221 -7 6 -18 8
-24 4 -13 -8 -13 -9 10 52 11 29 23 85 26 124 l7 72 -25 -5 -25 -5 5 113 c5
130 -7 181 -38 164 -10 -6 -21 -10 -23 -10 -2 0 -7 45 -10 99 -4 55 -13 117
-20 138 -11 32 -17 38 -40 36 -22 -1 -28 3 -33 25 -13 64 -54 189 -68 207 -12
17 -18 18 -34 8 -18 -11 -22 -6 -47 55 -25 59 -56 119 -83 161 -7 10 -14 11
-30 2 -19 -10 -23 -7 -38 21 -9 18 -32 57 -51 86 -36 54 -65 66 -92 40 -10
-11 -14 -9 -23 5 -24 44 -96 121 -130 141 -32 18 -40 19 -58 8 -19 -12 -29 -6
-112 73 -89 84 -112 97 -121 73 -5 -15 3 -20 -161 95 -69 48 -129 87 -134 87
-5 0 -12 -10 -16 -22z m235 -415 c28 -59 73 -162 102 -228 29 -66 55 -122 59
-123 5 -2 6 -8 2 -13 -3 -5 0 -9 6 -9 6 0 8 10 6 23 -3 12 -8 58 -11 102 -4
44 -11 100 -16 124 -5 24 -8 46 -5 48 8 8 26 -97 41 -235 12 -119 21 -159 70
-302 32 -91 68 -199 82 -240 13 -41 28 -78 32 -83 11 -11 60 196 78 330 14
111 13 273 -2 383 -4 28 -3 31 4 13 6 -12 15 -59 21 -105 19 -130 -1 -335 -51
-526 -16 -62 -29 -125 -29 -140 0 -15 20 -101 45 -192 25 -91 53 -202 62 -247
10 -46 21 -83 25 -83 5 0 7 3 6 8 -1 4 4 20 10 35 7 16 12 33 12 38 0 6 18 65
40 132 78 241 107 383 120 587 l8 125 -3 -150 c-4 -162 -22 -269 -77 -455
-112 -379 -112 -379 -77 -513 32 -125 116 -547 108 -547 -3 0 -13 25 -22 55
-25 88 -93 150 -251 231 -150 76 -224 119 -316 183 -90 63 -192 144 -210 167
-8 10 -1 7 15 -7 52 -46 217 -164 296 -211 97 -59 279 -150 279 -141 0 5 4 3
8 -3 4 -5 25 -21 47 -34 22 -13 52 -34 67 -48 l27 -25 -5 37 c-14 112 -49 258
-76 315 -35 74 -139 183 -233 247 -56 38 -69 42 -166 53 -130 14 -269 51 -350
91 -80 41 -71 49 12 11 35 -17 90 -37 123 -45 64 -17 266 -49 272 -43 2 2 -25
24 -59 50 -163 119 -339 298 -429 435 -57 85 -46 86 14 1 84 -121 281 -308
468 -444 91 -66 203 -157 249 -203 46 -45 85 -81 87 -79 6 6 -82 389 -112 487
-15 47 -35 97 -46 112 -18 26 -85 73 -298 209 -126 80 -216 174 -299 312 -40
65 -16 40 37 -40 83 -127 173 -205 360 -315 48 -28 107 -65 132 -82 41 -28 70
-40 70 -30 0 2 -29 93 -65 202 -73 223 -64 210 -223 326 -116 86 -185 162
-240 264 -23 44 -42 83 -42 88 0 5 19 -25 41 -66 69 -127 119 -182 239 -267
36 -25 82 -59 102 -74 l37 -29 -5 25 c-6 35 -46 132 -149 370 -120 275 -116
265 -110 265 3 0 28 -48 56 -107z m895 -1243 c-29 -115 -215 -626 -216 -593 0
11 69 204 136 378 52 138 84 261 92 360 l7 90 3 -70 c2 -49 -5 -98 -22 -165z
m75 -364 c-26 -73 -220 -440 -229 -432 -2 2 26 57 61 122 35 66 80 148 99 184
20 36 46 93 58 128 13 34 25 61 27 58 2 -2 -5 -29 -16 -60z m-816 -399 c28
-11 133 -37 235 -58 197 -40 218 -52 35 -19 -144 26 -255 55 -311 81 -42 20
-64 39 -26 24 9 -4 40 -17 67 -28z"/>
<path d="M4977 4092 c-8 -9 -33 -54 -56 -99 -23 -46 -43 -83 -45 -83 -3 0 -4
18 -4 40 0 23 -2 44 -6 47 -3 4 -6 -18 -6 -49 0 -51 -30 -162 -49 -181 -4 -4
-11 17 -15 47 -11 101 -35 133 -55 76 -7 -22 -7 -42 3 -75 8 -24 11 -44 7 -43
-18 2 -21 -4 -9 -24 30 -54 35 -83 20 -118 -13 -32 -15 -33 -23 -15 -49 115
-53 120 -57 96 -2 -13 8 -57 23 -98 l27 -76 -33 -89 c-34 -96 -54 -102 -38
-13 14 76 22 151 16 145 -3 -3 -14 -36 -25 -74 l-18 -68 -19 83 c-27 125 -60
149 -59 43 1 -51 0 -54 -16 -39 -44 40 -40 -6 5 -52 19 -20 35 -40 35 -44 0
-4 3 -15 7 -24 5 -15 3 -16 -15 -6 -40 21 -23 -4 28 -42 28 -21 50 -42 50 -47
0 -13 -60 -244 -65 -248 -8 -8 -26 40 -21 56 3 9 2 42 -3 72 -7 51 -9 53 -19
30 l-11 -25 -1 25 c0 14 -7 39 -14 55 -12 25 -15 27 -21 12 -4 -9 -5 -33 -3
-52 5 -40 -1 -44 -20 -14 -10 15 -17 18 -24 11 -8 -8 0 -26 30 -64 22 -29 38
-56 35 -62 -3 -5 -12 -1 -19 9 -8 10 -17 16 -20 13 -6 -6 67 -65 94 -75 6 -3
12 -12 12 -20 0 -28 -70 -294 -84 -321 -15 -27 -15 -26 -17 28 -3 77 0 100 16
143 17 44 18 47 7 47 -5 0 -14 -12 -21 -27 -8 -18 -15 -23 -23 -15 -10 10 -1
83 18 150 3 12 2 22 -3 22 -6 0 -15 -10 -21 -22 -10 -22 -11 -22 -11 5 -1 46
-21 20 -21 -28 0 -49 -15 -68 -24 -30 -4 14 -13 25 -21 25 -17 0 -11 -39 11
-75 13 -21 37 -125 30 -132 -2 -2 -13 8 -25 23 -12 15 -24 24 -28 21 -8 -8 38
-74 77 -112 40 -38 39 -73 -5 -185 -19 -49 -35 -94 -35 -100 0 -15 -272 -491
-278 -486 -2 3 4 55 14 117 17 111 18 114 57 149 48 43 79 100 66 121 -7 11
-15 7 -42 -21 -17 -19 -40 -46 -50 -60 l-18 -25 5 35 c3 19 8 52 12 74 4 28
19 53 57 92 52 55 77 100 77 138 0 17 -11 9 -56 -39 -45 -49 -55 -55 -51 -35
3 14 12 60 21 103 18 90 19 106 7 126 -14 21 -38 -2 -46 -42 -4 -18 -11 -48
-17 -67 l-11 -35 -14 30 c-13 28 -14 27 -7 -25 8 -61 6 -199 -3 -214 -4 -5
-21 21 -40 57 -18 37 -38 67 -44 67 -18 0 1 -79 37 -156 26 -54 34 -84 34
-127 0 -55 -12 -82 -24 -51 -3 9 -6 33 -6 54 0 21 -4 42 -10 45 -5 3 -10 -2
-10 -13 0 -32 -13 -34 -37 -5 -18 23 -24 25 -32 14 -11 -17 -5 -36 25 -78 24
-32 33 -70 14 -58 -26 16 -6 -15 29 -46 31 -26 39 -40 35 -59 -2 -14 -6 -53
-8 -87 -5 -71 -38 -136 -244 -478 -231 -383 -235 -390 -211 -393 14 -3 30 5
43 21 23 27 251 182 288 196 19 7 31 1 67 -30 46 -41 78 -43 40 -3 -29 31 -22
36 25 22 27 -8 46 -24 62 -50 25 -39 54 -55 34 -19 -16 30 -13 31 36 10 25
-11 53 -18 61 -15 25 10 -20 51 -78 72 -27 10 -49 21 -49 24 0 3 17 12 38 20
50 18 28 24 -28 7 -28 -8 -64 -11 -95 -7 l-50 6 32 17 c47 25 185 77 204 77
29 0 128 -51 148 -76 21 -27 44 -33 35 -9 -8 19 -5 19 47 -5 89 -40 120 -16
38 30 -31 17 -39 26 -26 28 35 7 15 19 -40 25 -144 15 -165 19 -152 31 2 2 60
16 129 33 l126 29 51 -23 c64 -30 156 -36 161 -11 2 13 -9 19 -52 29 -31 7
-56 16 -56 21 0 4 6 8 13 8 53 0 182 22 207 35 58 30 31 51 -49 37 -43 -8 -49
-7 -40 5 21 24 1 26 -31 3 -32 -23 -109 -50 -142 -50 -32 0 -20 18 36 54 48
30 90 76 70 76 -19 0 -117 -66 -163 -110 -44 -42 -64 -54 -115 -66 -33 -8 -76
-19 -94 -25 -19 -6 -36 -8 -39 -5 -14 14 22 34 80 45 84 16 98 21 92 31 -6 9
-80 6 -117 -5 -19 -6 -16 0 16 33 26 27 53 44 83 51 31 8 43 16 40 25 -3 8 5
24 19 37 24 23 32 49 15 49 -5 0 -23 -12 -40 -26 l-31 -26 10 27 c12 32 12 35
1 35 -5 0 -12 -9 -16 -20 -7 -21 -104 -124 -111 -117 -3 2 0 16 6 31 13 35 13
66 0 66 -14 0 -58 -93 -66 -140 -4 -19 -19 -55 -34 -80 -24 -41 -35 -48 -116
-82 -49 -20 -93 -37 -98 -37 -19 -2 37 48 60 53 14 4 22 11 19 17 -4 5 -16 7
-28 3 -21 -6 -21 -6 2 20 14 14 33 26 43 26 10 0 18 5 18 10 0 6 -5 10 -10 10
-6 0 -1 13 11 30 29 38 19 48 -20 20 -19 -12 -31 -17 -31 -9 0 21 -27 -9 -35
-38 -3 -15 -15 -39 -26 -55 -11 -15 -23 -44 -26 -64 -3 -19 -13 -40 -22 -45
-9 -5 -76 -45 -149 -88 -123 -73 -131 -76 -114 -47 173 290 161 275 302 412
153 150 345 314 367 314 7 0 30 -8 51 -19 50 -25 102 -36 102 -21 0 6 -13 17
-30 23 -42 16 -37 27 13 27 35 0 49 -6 72 -30 16 -17 32 -30 37 -30 13 0 9 22
-8 41 -14 16 -14 18 6 24 15 5 31 -2 60 -29 22 -20 45 -36 50 -36 16 0 11 19
-10 37 -11 10 -20 21 -20 25 0 5 38 8 85 8 68 0 85 3 85 15 0 19 -42 30 -112
29 -32 -1 -58 2 -58 5 0 4 12 14 28 23 36 21 69 58 53 58 -7 0 -41 -20 -75
-45 -40 -28 -74 -45 -92 -45 -28 0 -28 1 26 49 54 48 64 74 18 51 -12 -7 -48
-34 -78 -60 -45 -39 -65 -49 -108 -55 -81 -11 -81 -11 103 131 98 75 118 80
224 60 33 -7 42 -6 37 2 -12 20 13 14 60 -14 50 -29 73 -24 34 8 l-25 20 69
-3 c47 -3 70 0 73 8 7 19 -34 34 -97 34 -72 1 -84 12 -30 28 21 6 42 16 46 22
14 23 -9 21 -62 -4 -30 -15 -61 -27 -69 -27 -8 0 -15 -4 -15 -10 0 -5 -19 -10
-42 -10 -41 1 -42 1 -23 16 11 8 62 40 113 71 l93 56 84 -2 c80 -2 125 9 125
29 0 5 -30 10 -67 12 -66 3 -66 3 -37 18 16 8 38 23 48 33 16 16 29 19 78 14
46 -4 58 -2 58 9 0 8 -7 14 -15 14 -31 0 -12 16 56 47 68 32 82 53 36 53 -28
0 -115 -30 -148 -51 -29 -19 -59 -30 -59 -23 0 3 11 22 25 42 14 20 25 40 25
45 0 17 -21 -6 -60 -64 -41 -59 -80 -102 -87 -95 -3 2 9 31 26 65 34 67 37 81
18 81 -8 0 -38 -45 -68 -100 -53 -101 -53 -101 -134 -147 -44 -25 -102 -60
-130 -79 -53 -36 -63 -37 -46 -6 14 26 74 73 134 105 49 26 50 45 1 27 -15 -6
-29 -8 -32 -5 -11 11 36 61 82 86 63 34 80 53 44 47 l-27 -5 19 27 c21 30 26
50 11 50 -9 0 -31 -22 -96 -95 l-26 -30 5 28 c4 16 2 27 -4 27 -12 0 -14 -5
-29 -66 -6 -22 -26 -58 -45 -80 l-35 -39 6 68 c5 56 3 67 -9 67 -17 0 -22 -16
-33 -91 -6 -39 -10 -46 -26 -42 -22 6 -26 -17 -7 -47 10 -16 9 -30 -6 -73 -17
-51 -25 -59 -115 -123 -52 -38 -112 -83 -131 -100 -19 -18 -99 -87 -178 -154
-79 -68 -160 -143 -180 -166 -20 -24 -37 -42 -39 -40 -2 2 18 41 45 87 27 46
75 134 107 194 78 148 226 403 288 495 56 83 151 205 168 216 6 3 37 1 69 -6
33 -7 67 -10 76 -6 16 6 16 8 0 25 -16 18 -15 19 19 25 58 11 122 42 122 60 0
21 -44 21 -96 0 -22 -9 -46 -14 -53 -12 -7 3 -30 -8 -52 -24 -42 -30 -66 -37
-46 -13 28 34 183 126 208 125 15 -1 32 -1 37 1 6 1 44 3 87 3 42 1 80 5 85 9
14 15 -30 39 -59 33 -16 -3 -28 -2 -28 3 0 17 48 28 110 23 44 -3 62 -1 55 6
-5 6 -19 12 -30 14 -13 2 1 11 43 26 63 23 84 44 65 63 -9 9 -44 0 -138 -36
-18 -7 -17 -5 4 18 58 64 -14 32 -99 -44 -37 -33 -110 -74 -110 -63 0 4 29 38
65 75 61 63 77 89 56 89 -5 0 -33 -24 -62 -54 -29 -30 -58 -52 -63 -50 -6 2
-18 -14 -27 -35 -11 -25 -29 -46 -49 -56 -61 -32 -49 -6 61 130 109 134 122
146 164 155 97 20 165 56 150 80 -9 14 -42 7 -99 -21 -22 -10 -42 -17 -44 -14
-7 7 66 86 105 114 18 13 33 30 33 36 0 17 52 40 123 56 58 12 77 29 33 29
-14 0 -36 -4 -50 -10 -39 -14 -31 1 20 40 56 43 90 88 77 101 -12 12 -71 -27
-153 -100 -33 -29 -60 -50 -60 -47 0 3 9 29 20 57 20 50 20 73 0 53 -5 -5 -21
-40 -35 -78 -25 -66 -160 -264 -172 -252 -3 3 16 58 42 121 25 64 44 119 41
123 -10 10 -24 -11 -51 -73 l-25 -60 6 56 c4 35 2 59 -4 63 -15 9 -22 -7 -29
-64 -3 -27 -9 -50 -12 -50 -4 0 -14 12 -24 28 l-18 27 5 -40 c3 -22 6 -49 6
-60 0 -17 2 -18 11 -5 9 12 10 12 5 -3 -3 -10 -6 -23 -6 -29 0 -6 -6 -6 -15 2
-19 16 -19 6 1 -59 10 -33 12 -57 6 -64 -122 -153 -186 -233 -188 -236 -2 -2
-4 7 -4 22 0 18 18 45 56 87 63 68 66 96 4 35 -38 -37 -40 -38 -40 -15 0 16
14 37 43 61 23 20 39 40 34 45 -4 4 -21 -6 -38 -22 l-32 -29 7 33 c3 17 9 46
12 62 5 23 3 30 -9 30 -10 0 -18 -13 -23 -35 -6 -32 -24 -50 -24 -24 0 5 -4 8
-9 4 -5 -3 -7 -40 -5 -83 5 -71 4 -76 -10 -58 -15 19 -16 18 -16 -17 0 -20 7
-57 16 -82 13 -39 13 -49 2 -63 -25 -32 -211 -257 -225 -272 -34 -36 57 182
102 244 49 70 54 97 9 55 l-26 -24 16 40 c9 21 23 47 31 55 20 22 19 44 -1 36
-11 -4 -14 -1 -10 12 3 9 23 91 45 181 23 90 45 169 51 176 6 7 27 15 48 19
43 7 109 57 98 75 -6 8 -18 6 -44 -10 -26 -15 -14 0 41 51 42 39 77 76 77 81
0 18 -37 8 -60 -16 -27 -29 -37 -27 -20 4 7 14 7 21 0 21 -5 0 -23 -24 -40
-52 -31 -54 -64 -98 -73 -98 -3 0 5 28 18 63 12 34 36 98 51 141 26 72 32 80
64 92 19 7 31 13 25 14 -5 0 21 17 60 38 39 21 71 45 73 55 5 26 -17 21 -92
-19 -37 -19 -70 -33 -73 -31 -8 8 26 65 48 81 12 8 18 19 15 25 -6 10 1 18 64
70 l25 21 -27 -10 c-16 -5 -28 -6 -28 -2 0 4 16 37 35 72 34 64 43 104 26 114
-4 3 -15 -2 -24 -12z"/>
<path d="M4857 3594 c-21 -14 -36 -29 -32 -32 3 -4 10 0 15 8 6 8 10 12 10 7
0 -11 60 22 60 33 0 16 -13 12 -53 -16z"/>
<path d="M5205 3284 c-22 -8 -53 -21 -70 -30 -30 -15 -29 -15 28 -10 60 5 112
29 102 46 -8 12 -11 12 -60 -6z"/>
<path d="M4516 2308 c-9 -12 -16 -27 -16 -33 0 -6 -7 -20 -16 -31 -15 -19 -15
-19 -11 2 2 12 -1 30 -7 40 -9 16 -12 9 -16 -41 l-5 -60 -18 30 -18 30 5 -30
c3 -16 8 -43 12 -59 5 -22 3 -32 -10 -42 -12 -8 -15 -19 -10 -38 9 -37 21 -40
32 -8 9 26 19 38 87 97 l30 26 -27 -5 c-36 -8 -35 -2 7 41 39 41 46 59 14 42
-21 -11 -21 -9 -15 25 8 42 3 45 -18 14z"/>
<path d="M3641 884 c-244 -66 -273 -409 -45 -524 66 -33 169 -33 234 0 57 28
106 74 133 125 31 58 31 193 0 251 -35 66 -70 101 -126 128 -68 32 -129 38
-196 20z"/>
</g>
</svg>
